# xmcd
#
# Track frame offsets:
#	183
#	9120
#	17958
#	33045
#	47433
#	63858
#	76483
#	88858
#	102645
#	113970
#	124620
#	136008
#	145470
#	156420
#	170395
#	181233
#	192183
#	204483
#	216483
#	230945
#	243345
#	257058
#	266570
#
# Disc length: 3770
#
# Revision: 3
# Processed by: cddbd v1.5.1PL0 Copyright (c) Steve Scherf et al.
# Submitted via: audiograbber 1.81.00
# Normalized: r2:DSETVAR1
#
DISCID=430eb817
DTITLE=Various Artist - Hits Of 65 and 66 - Volume 1
DYEAR=1965
DGENRE=Pop
TTITLE0=Tom Jones - It's Not Unusual
TTITLE1=The Mindbenders - A Groovy Kind Of Love
TTITLE2=The Fortunes - You've Got Your Troubles
TTITLE3=The Walker Brothers - Make It Easy On Yourself
TTITLE4=The Righteous Brothers - You've Lost That Loving Feeling
TTITLE5=Dusty Springfield - You Don't Have To Say You Love Me
TTITLE6=Bobby Hebb - Sunny
TTITLE7=Keith - 98.6
TTITLE8=Dave Dee and Co - Bend It
TTITLE9=Sam the Sham and the Pharaohs - Wooly Bully
TTITLE10=Georgie Fame - Get Away
TTITLE11=Wayne Fontana and the Mindbenders - Game Of Love
TTITLE12=Dave Berry - This Strange Effect
TTITLE13=Lou Christie - Lightnin' Strikes
TTITLE14=The New Vaudeville Band - Winchester Cathedral
TTITLE15=Roger Miller - King Of Road
TTITLE16=James Brown - I Got You ( I Feel Good )
TTITLE17=Chris Montez - The More I See You
TTITLE18=The Sandpipers - Guantanamera
TTITLE19=Them - Here Comes The Night
TTITLE20=The Small Faces - All Or Nothing
TTITLE21=The Troggs - With A Girl Like You
TTITLE22=Ike and Tina Turner - River Deep Mountain High
EXTD=it is defenitely not BLUES
EXTT0=
EXTT1=
EXTT2=
EXTT3=
EXTT4=
EXTT5=
EXTT6=
EXTT7=
EXTT8=
EXTT9=
EXTT10=
EXTT11=
EXTT12=
EXTT13=
EXTT14=
EXTT15=
EXTT16=
EXTT17=
EXTT18=
EXTT19=
EXTT20=
EXTT21=
EXTT22=
PLAYORDER=
